<svg xmlns="http://www.w3.org/2000/svg" xmlns:xlink="http://www.w3.org/1999/xlink" width="64" zoomAndPan="magnify" viewBox="0 0 48 48" height="64" preserveAspectRatio="xMidYMid meet" version="1.0"><defs><clipPath id="e0b47025c6"><path d="M 0.488281 0 L 47.507812 0 L 47.507812 47.019531 L 0.488281 47.019531 Z M 0.488281 0 " clip-rule="nonzero"/></clipPath></defs><g clip-path="url(#e0b47025c6)"><path fill="#13aa52" d="M 47.511719 23.511719 C 47.511719 24.28125 47.472656 25.046875 47.398438 25.816406 C 47.320312 26.582031 47.207031 27.339844 47.058594 28.097656 C 46.910156 28.851562 46.722656 29.597656 46.496094 30.335938 C 46.273438 31.070312 46.015625 31.796875 45.71875 32.507812 C 45.425781 33.21875 45.097656 33.914062 44.734375 34.59375 C 44.371094 35.273438 43.976562 35.929688 43.546875 36.570312 C 43.121094 37.210938 42.660156 37.828125 42.171875 38.425781 C 41.683594 39.019531 41.167969 39.589844 40.625 40.132812 C 40.078125 40.679688 39.511719 41.195312 38.914062 41.683594 C 38.320312 42.171875 37.703125 42.628906 37.0625 43.058594 C 36.421875 43.484375 35.761719 43.882812 35.082031 44.246094 C 34.402344 44.605469 33.707031 44.9375 32.996094 45.230469 C 32.285156 45.527344 31.5625 45.785156 30.824219 46.007812 C 30.085938 46.230469 29.34375 46.417969 28.585938 46.570312 C 27.832031 46.71875 27.070312 46.832031 26.304688 46.90625 C 25.539062 46.984375 24.769531 47.019531 24 47.019531 C 23.230469 47.019531 22.460938 46.984375 21.695312 46.90625 C 20.929688 46.832031 20.167969 46.71875 19.414062 46.570312 C 18.65625 46.417969 17.914062 46.230469 17.175781 46.007812 C 16.4375 45.785156 15.714844 45.527344 15.003906 45.230469 C 14.292969 44.9375 13.597656 44.605469 12.917969 44.246094 C 12.238281 43.882812 11.578125 43.484375 10.9375 43.058594 C 10.296875 42.628906 9.679688 42.171875 9.085938 41.683594 C 8.488281 41.195312 7.921875 40.679688 7.375 40.132812 C 6.832031 39.589844 6.316406 39.019531 5.828125 38.425781 C 5.335938 37.828125 4.878906 37.210938 4.453125 36.570312 C 4.023438 35.929688 3.628906 35.273438 3.265625 34.59375 C 2.902344 33.914062 2.574219 33.21875 2.28125 32.507812 C 1.984375 31.796875 1.726562 31.070312 1.503906 30.335938 C 1.277344 29.597656 1.089844 28.851562 0.941406 28.097656 C 0.792969 27.339844 0.679688 26.582031 0.601562 25.816406 C 0.527344 25.046875 0.488281 24.28125 0.488281 23.511719 C 0.488281 22.738281 0.527344 21.972656 0.601562 21.207031 C 0.679688 20.441406 0.792969 19.679688 0.941406 18.921875 C 1.089844 18.167969 1.277344 17.421875 1.503906 16.6875 C 1.726562 15.949219 1.984375 15.226562 2.28125 14.511719 C 2.574219 13.800781 2.902344 13.105469 3.265625 12.425781 C 3.628906 11.75 4.023438 11.089844 4.453125 10.449219 C 4.878906 9.808594 5.339844 9.191406 5.828125 8.59375 C 6.316406 8 6.832031 7.429688 7.375 6.886719 C 7.921875 6.339844 8.488281 5.824219 9.085938 5.335938 C 9.679688 4.847656 10.296875 4.390625 10.9375 3.960938 C 11.578125 3.535156 12.238281 3.140625 12.917969 2.777344 C 13.597656 2.414062 14.292969 2.085938 15.003906 1.789062 C 15.714844 1.496094 16.4375 1.234375 17.175781 1.011719 C 17.914062 0.789062 18.65625 0.601562 19.414062 0.453125 C 20.167969 0.300781 20.929688 0.1875 21.695312 0.113281 C 22.460938 0.0390625 23.230469 0 24 0 C 24.769531 0 25.539062 0.0390625 26.304688 0.113281 C 27.070312 0.1875 27.832031 0.300781 28.585938 0.453125 C 29.34375 0.601562 30.085938 0.789062 30.824219 1.011719 C 31.5625 1.234375 32.285156 1.496094 32.996094 1.789062 C 33.707031 2.085938 34.402344 2.414062 35.082031 2.777344 C 35.761719 3.140625 36.421875 3.535156 37.0625 3.960938 C 37.703125 4.390625 38.320312 4.847656 38.914062 5.335938 C 39.511719 5.824219 40.078125 6.339844 40.625 6.886719 C 41.167969 7.429688 41.683594 8 42.171875 8.59375 C 42.660156 9.191406 43.121094 9.808594 43.546875 10.449219 C 43.976562 11.089844 44.371094 11.75 44.734375 12.425781 C 45.097656 13.105469 45.425781 13.800781 45.71875 14.511719 C 46.015625 15.226562 46.273438 15.949219 46.496094 16.6875 C 46.722656 17.421875 46.910156 18.167969 47.058594 18.921875 C 47.207031 19.679688 47.320312 20.441406 47.398438 21.207031 C 47.472656 21.972656 47.511719 22.738281 47.511719 23.511719 Z M 47.511719 23.511719 " fill-opacity="1" fill-rule="nonzero"/></g><path fill="#ffffff" d="M 30.285156 20.636719 C 28.800781 14.082031 25.289062 11.929688 24.910156 11.105469 C 24.5 10.523438 24.078125 9.492188 24.078125 9.492188 C 24.074219 9.472656 24.0625 9.441406 24.050781 9.414062 C 24.007812 9.992188 23.984375 10.21875 23.433594 10.804688 C 22.585938 11.46875 18.222656 15.128906 17.867188 22.578125 C 17.535156 29.519531 22.882812 33.660156 23.605469 34.1875 L 23.6875 34.246094 L 23.6875 34.238281 C 23.691406 34.273438 23.917969 35.894531 24.078125 37.609375 L 24.644531 37.609375 C 24.777344 36.394531 24.976562 35.191406 25.238281 34 L 25.285156 33.972656 C 25.609375 33.738281 25.917969 33.488281 26.210938 33.214844 L 26.242188 33.1875 C 27.78125 31.765625 30.542969 28.480469 30.515625 23.242188 C 30.511719 22.367188 30.433594 21.5 30.285156 20.636719 Z M 24.015625 30.265625 C 24.015625 30.265625 24.015625 20.527344 24.335938 20.527344 C 24.589844 20.527344 24.914062 33.089844 24.914062 33.089844 C 24.464844 33.039062 24.015625 31.023438 24.015625 30.265625 Z M 24.015625 30.265625 " fill-opacity="1" fill-rule="nonzero"/></svg>