<svg xmlns="http://www.w3.org/2000/svg" xmlns:xlink="http://www.w3.org/1999/xlink" width="64" zoomAndPan="magnify" viewBox="0 0 48 48" height="64" preserveAspectRatio="xMidYMid meet" version="1.0"><defs><clipPath id="b3c6d97d33"><path d="M 0.488281 0 L 47.507812 0 L 47.507812 47.019531 L 0.488281 47.019531 Z M 0.488281 0 " clip-rule="nonzero"/></clipPath></defs><g clip-path="url(#b3c6d97d33)"><path fill="#eee400" d="M 37.089844 44.011719 C 32.921875 44.011719 30.230469 42.023438 28.914062 39.425781 L 32.570312 37.308594 C 33.53125 38.882812 34.78125 40.035156 36.992188 40.035156 C 38.851562 40.035156 40.035156 39.105469 40.035156 37.824219 C 40.035156 35.894531 37.460938 35.140625 35.644531 34.363281 C 32.410156 32.984375 30.257812 31.25 30.257812 27.597656 C 30.257812 24.230469 32.824219 21.667969 36.832031 21.667969 C 39.683594 21.667969 41.738281 22.660156 43.210938 25.257812 L 39.714844 27.5 C 38.949219 26.121094 38.113281 25.578125 36.832031 25.578125 C 35.515625 25.578125 34.683594 26.414062 34.683594 27.5 C 34.683594 28.847656 35.515625 29.390625 37.441406 30.226562 C 41.472656 31.953125 44.523438 33.3125 44.523438 37.757812 C 44.527344 41.800781 41.355469 44.011719 37.089844 44.011719 Z M 26.753906 37.246094 C 26.753906 41.894531 23.890625 44.351562 19.917969 44.351562 C 16.324219 44.351562 14.175781 42.980469 13.117188 40.59375 L 13.054688 40.59375 L 16.703125 38.039062 C 17.410156 39.289062 18.042969 40.175781 19.582031 40.175781 C 21.058594 40.175781 21.980469 39.425781 21.980469 37.183594 L 21.980469 21.488281 L 26.753906 21.488281 Z M 0.488281 47.753906 L 48.246094 47.753906 L 48.246094 0 L 0.488281 0 Z M 0.488281 47.753906 " fill-opacity="1" fill-rule="evenodd"/></g></svg>