<svg xmlns="http://www.w3.org/2000/svg" xmlns:xlink="http://www.w3.org/1999/xlink" width="500" zoomAndPan="magnify" viewBox="0 0 375 374.999991" height="500" preserveAspectRatio="xMidYMid meet" version="1.0"><defs><g/><clipPath id="b247506649"><path d="M 44 50 L 331 50 L 331 338 L 44 338 Z M 44 50 " clip-rule="nonzero"/></clipPath><clipPath id="e5a7c4c9aa"><path d="M 44.042969 194.039062 L 187.5 50.582031 L 330.960938 194.039062 L 187.5 337.496094 Z M 44.042969 194.039062 " clip-rule="nonzero"/></clipPath><clipPath id="e16a2d8bb3"><path d="M 0 0.398438 L 286.960938 0.398438 L 286.960938 287.679688 L 0 287.679688 Z M 0 0.398438 " clip-rule="nonzero"/></clipPath><clipPath id="172b6ac397"><path d="M 0.0429688 144.039062 L 143.5 0.582031 L 286.960938 144.039062 L 143.5 287.496094 Z M 0.0429688 144.039062 " clip-rule="nonzero"/></clipPath><clipPath id="1073e50af7"><rect x="0" width="287" y="0" height="288"/></clipPath><clipPath id="cec2b694eb"><path d="M 142 206 L 235.492188 206 L 235.492188 222.617188 L 142 222.617188 Z M 142 206 " clip-rule="nonzero"/></clipPath><clipPath id="57e38143f9"><path d="M 168 23.148438 L 186 23.148438 L 186 93 L 168 93 Z M 168 23.148438 " clip-rule="nonzero"/></clipPath></defs><g clip-path="url(#b247506649)"><g clip-path="url(#e5a7c4c9aa)"><g transform="matrix(1, 0, 0, 1, 44, 50)"><g clip-path="url(#1073e50af7)"><g clip-path="url(#e16a2d8bb3)"><g clip-path="url(#172b6ac397)"><path fill="#8f89e2" d="M 0.0429688 144.039062 L 143.5 0.582031 L 286.960938 144.039062 L 143.5 287.496094 Z M 0.0429688 144.039062 " fill-opacity="1" fill-rule="nonzero"/></g></g></g></g></g></g><path fill="#889ee2" d="M 223.40625 152.554688 C 223.425781 152.628906 223.460938 152.695312 223.476562 152.765625 C 223.84375 154.214844 220.3125 155.226562 214.335938 155.878906 C 216.230469 164.820312 215.347656 174.25 211.394531 182.609375 C 210.777344 183.914062 209.484375 184.671875 208.132812 184.671875 C 207.617188 184.671875 207.09375 184.558594 206.597656 184.328125 C 204.796875 183.472656 204.027344 181.324219 204.878906 179.523438 C 208.292969 172.316406 208.945312 164.132812 207.109375 156.429688 C 202.152344 156.695312 196.363281 156.816406 190.132812 156.816406 C 171.054688 156.816406 154.6875 153.417969 154.6875 148.859375 C 154.6875 148.546875 154.769531 148.253906 154.921875 147.972656 C 153.738281 149.390625 152.921875 151.683594 151.933594 155.738281 C 146.25 179.128906 157.933594 198.085938 174.695312 205.335938 C 179.371094 207.359375 184.4375 208.46875 189.644531 208.511719 C 195.765625 208.511719 201.574219 207.578125 206.707031 205.554688 C 218.734375 200.804688 227.050781 190.003906 227.050781 170.804688 C 227.03125 163.351562 225.308594 156.359375 223.40625 152.554688 Z M 203.757812 193.992188 C 201.6875 193.992188 200 192.378906 200 190.390625 C 200 188.398438 201.679688 186.785156 203.757812 186.785156 C 205.832031 186.785156 207.515625 188.398438 207.515625 190.390625 C 207.515625 192.375 205.828125 193.992188 203.757812 193.992188 Z M 203.757812 193.992188 " fill-opacity="1" fill-rule="nonzero"/><path fill="#889ee2" d="M 222.75 151.390625 C 222.375 150.914062 221.878906 150.4375 221.25 149.964844 C 221.820312 150.3125 222.324219 150.722656 222.675781 151.257812 C 222.699219 151.300781 222.726562 151.351562 222.75 151.390625 Z M 222.75 151.390625 " fill-opacity="1" fill-rule="nonzero"/><path fill="#87b9e2" d="M 223.40625 152.554688 C 223.191406 152.128906 222.96875 151.738281 222.75 151.390625 C 223.054688 151.78125 223.273438 152.167969 223.40625 152.554688 Z M 223.40625 152.554688 " fill-opacity="1" fill-rule="nonzero"/><path fill="#87b9e2" d="M 214.335938 155.878906 C 213.726562 153.015625 212.832031 150.210938 211.664062 147.503906 C 211.386719 146.867188 211.109375 146.234375 210.804688 145.609375 C 215.523438 146.800781 219.105469 148.34375 221.253906 149.96875 C 221.878906 150.4375 222.382812 150.914062 222.753906 151.394531 C 222.972656 151.738281 223.195312 152.128906 223.410156 152.558594 C 223.429688 152.632812 223.464844 152.699219 223.480469 152.769531 C 223.839844 154.214844 220.3125 155.226562 214.335938 155.878906 Z M 214.335938 155.878906 " fill-opacity="1" fill-rule="nonzero"/><path fill="#87b9e2" d="M 207.101562 156.429688 C 202.144531 156.695312 196.355469 156.816406 190.125 156.816406 C 171.042969 156.816406 154.679688 153.417969 154.679688 148.859375 C 154.679688 148.546875 154.761719 148.253906 154.914062 147.972656 C 156.945312 144.171875 172.359375 143.296875 190.128906 143.296875 C 194.207031 143.296875 198.003906 143.535156 201.476562 143.9375 C 202.574219 145.507812 203.542969 147.144531 204.375 148.847656 C 205.5625 151.285156 206.476562 153.832031 207.101562 156.429688 Z M 207.101562 156.429688 " fill-opacity="1" fill-rule="nonzero"/><path fill="#a3d5ff" d="M 212.824219 206.128906 C 204.746094 211.351562 196.054688 211.992188 191.085938 211.816406 C 183.1875 211.539062 174.992188 209.582031 167.894531 205.867188 C 170.0625 205.65625 172.332031 205.476562 174.679688 205.335938 C 179.359375 207.359375 184.425781 208.46875 189.628906 208.511719 C 195.753906 208.511719 201.558594 207.578125 206.695312 205.554688 C 208.816406 205.722656 210.867188 205.914062 212.824219 206.128906 Z M 212.824219 206.128906 " fill-opacity="1" fill-rule="nonzero"/><path fill="#a3d5ff" d="M 207.515625 190.386719 C 207.515625 190.863281 207.421875 191.324219 207.230469 191.765625 C 207.039062 192.207031 206.765625 192.59375 206.414062 192.933594 C 206.0625 193.269531 205.65625 193.53125 205.195312 193.714844 C 204.734375 193.898438 204.257812 193.988281 203.757812 193.988281 C 203.257812 193.988281 202.78125 193.898438 202.320312 193.714844 C 201.859375 193.53125 201.453125 193.269531 201.101562 192.933594 C 200.746094 192.59375 200.476562 192.207031 200.285156 191.765625 C 200.09375 191.324219 200 190.863281 200 190.386719 C 200 189.90625 200.09375 189.449219 200.285156 189.007812 C 200.476562 188.566406 200.746094 188.175781 201.101562 187.839844 C 201.453125 187.5 201.859375 187.238281 202.320312 187.058594 C 202.78125 186.875 203.257812 186.78125 203.757812 186.78125 C 204.257812 186.78125 204.734375 186.875 205.195312 187.058594 C 205.65625 187.238281 206.0625 187.5 206.414062 187.839844 C 206.765625 188.175781 207.039062 188.566406 207.230469 189.007812 C 207.421875 189.449219 207.515625 189.90625 207.515625 190.386719 Z M 207.515625 190.386719 " fill-opacity="1" fill-rule="nonzero"/><g clip-path="url(#cec2b694eb)"><path fill="#a3d5ff" d="M 235.5 213.613281 C 235.5 218.429688 214.726562 222.332031 189.097656 222.332031 C 163.46875 222.332031 142.695312 218.429688 142.695312 213.613281 C 142.695312 210.714844 150.234375 208.152344 161.824219 206.570312 C 169.699219 211.976562 179.65625 215.019531 190.953125 215.421875 C 191.4375 215.4375 191.960938 215.449219 192.515625 215.449219 C 198.851562 215.449219 209.066406 214.082031 218.015625 206.808594 C 228.667969 208.402344 235.5 210.855469 235.5 213.613281 Z M 235.5 213.613281 " fill-opacity="1" fill-rule="nonzero"/><path fill="#a3d5ff" d="M 235.5 213.613281 C 235.5 218.429688 214.726562 222.332031 189.097656 222.332031 C 163.46875 222.332031 142.695312 218.429688 142.695312 213.613281 C 142.695312 210.714844 150.234375 208.152344 161.824219 206.570312 C 169.699219 211.976562 179.65625 215.019531 190.953125 215.421875 C 191.4375 215.4375 191.960938 215.449219 192.515625 215.449219 C 198.851562 215.449219 209.066406 214.082031 218.015625 206.808594 C 228.667969 208.402344 235.5 210.855469 235.5 213.613281 Z M 235.5 213.613281 " fill-opacity="1" fill-rule="nonzero"/></g><path fill="#a3d5ff" d="M 207.515625 190.386719 C 207.515625 190.863281 207.421875 191.324219 207.230469 191.765625 C 207.039062 192.207031 206.765625 192.59375 206.414062 192.933594 C 206.0625 193.269531 205.65625 193.53125 205.195312 193.714844 C 204.734375 193.898438 204.257812 193.988281 203.757812 193.988281 C 203.257812 193.988281 202.78125 193.898438 202.320312 193.714844 C 201.859375 193.53125 201.453125 193.269531 201.101562 192.933594 C 200.746094 192.59375 200.476562 192.207031 200.285156 191.765625 C 200.09375 191.324219 200 190.863281 200 190.386719 C 200 189.90625 200.09375 189.449219 200.285156 189.007812 C 200.476562 188.566406 200.746094 188.175781 201.101562 187.839844 C 201.453125 187.5 201.859375 187.238281 202.320312 187.058594 C 202.78125 186.875 203.257812 186.78125 203.757812 186.78125 C 204.257812 186.78125 204.734375 186.875 205.195312 187.058594 C 205.65625 187.238281 206.0625 187.5 206.414062 187.839844 C 206.765625 188.175781 207.039062 188.566406 207.230469 189.007812 C 207.421875 189.449219 207.515625 189.90625 207.515625 190.386719 Z M 207.515625 190.386719 " fill-opacity="1" fill-rule="nonzero"/><path fill="#a3d5ff" d="M 211.390625 182.609375 C 210.773438 183.914062 209.480469 184.671875 208.128906 184.671875 C 207.613281 184.671875 207.089844 184.558594 206.59375 184.328125 C 204.792969 183.472656 204.023438 181.324219 204.875 179.523438 C 208.289062 172.316406 208.941406 164.132812 207.105469 156.429688 C 206.480469 153.832031 205.566406 151.28125 204.375 148.84375 C 203.542969 147.140625 202.574219 145.503906 201.476562 143.933594 C 200.578125 142.652344 199.613281 141.40625 198.539062 140.230469 C 197.203125 138.765625 197.300781 136.476562 198.777344 135.140625 C 200.246094 133.796875 202.527344 133.898438 203.871094 135.375 C 206.703125 138.480469 209.011719 141.933594 210.808594 145.609375 C 211.113281 146.230469 211.390625 146.867188 211.667969 147.503906 C 212.839844 150.214844 213.730469 153.015625 214.339844 155.878906 C 216.226562 164.820312 215.347656 174.25 211.390625 182.609375 Z M 211.390625 182.609375 " fill-opacity="1" fill-rule="nonzero"/><g clip-path="url(#57e38143f9)"><path fill="#a3d5ff" d="M 177.707031 70.875 C 178.671875 72.609375 179.675781 75.015625 180.035156 76.644531 C 180.714844 80.464844 180.664062 88.644531 180.644531 92.816406 C 182.882812 85.921875 185.929688 75.644531 185.160156 68.21875 C 184.792969 62.9375 181.480469 58.199219 179.238281 53.304688 C 176.566406 47.328125 174.808594 41.976562 174.566406 35.730469 C 174.523438 30.597656 176.542969 26.929688 178.828125 22.417969 C 177.421875 24.433594 175.894531 26.375 174.507812 28.410156 C 172.019531 32.117188 169.894531 36.210938 168.867188 40.574219 C 167.070312 49.316406 168.480469 58.78125 173.984375 65.960938 C 175.179688 67.628906 176.578125 69.15625 177.707031 70.875 Z M 177.707031 70.875 " fill-opacity="1" fill-rule="nonzero"/></g><path fill="#a3d5ff" d="M 195.613281 81.417969 C 195.859375 82.632812 196.632812 87.789062 195.925781 89.308594 C 195.585938 90.140625 195.558594 91.867188 194.757812 92.808594 C 200.507812 88.089844 200.976562 78.820312 198.804688 72.324219 C 198.179688 70.570312 197.058594 68.964844 196.582031 67.160156 C 195.023438 63.375 195.21875 59.394531 194.710938 55.46875 C 193.847656 58.820312 192.433594 62.078125 191.832031 65.46875 C 191.554688 68.046875 191.71875 70.683594 192.398438 73.207031 C 193.480469 75.902344 195.082031 78.910156 195.613281 81.417969 Z M 195.613281 81.417969 " fill-opacity="1" fill-rule="nonzero"/><path fill="#a3b9ff" d="M 207.851562 98.425781 L 207.851562 99.246094 C 207.851562 101.015625 206.421875 102.441406 204.660156 102.441406 L 171.394531 102.441406 C 169.628906 102.441406 168.199219 101.007812 168.199219 99.246094 L 168.199219 98.425781 C 168.199219 96.660156 169.632812 95.234375 171.394531 95.234375 L 204.660156 95.234375 C 206.421875 95.230469 207.851562 96.660156 207.851562 98.425781 Z M 207.851562 98.425781 " fill-opacity="1" fill-rule="nonzero"/><path fill="#d3ebff" d="M 233.480469 168.085938 C 233.480469 184.011719 229.070312 196.335938 220.378906 204.722656 C 219.605469 205.46875 218.8125 206.152344 218.015625 206.796875 C 209.066406 214.074219 198.851562 215.4375 192.515625 215.4375 C 191.96875 215.4375 191.441406 215.429688 190.953125 215.414062 C 179.65625 215.011719 169.699219 211.964844 161.824219 206.5625 C 160.476562 205.632812 159.175781 204.648438 157.945312 203.578125 C 150.902344 197.453125 146.25 189.3125 144.851562 180.65625 C 139.503906 147.601562 156.257812 135.300781 165.261719 128.691406 C 167.285156 127.210938 170.050781 125.175781 170.050781 124.367188 C 170.050781 119.269531 170.964844 108.324219 171.492188 102.4375 L 175.117188 102.4375 C 174.597656 108.191406 173.65625 119.378906 173.65625 124.367188 C 173.65625 127.003906 171.027344 128.933594 167.390625 131.601562 C 158.429688 138.179688 143.414062 149.199219 148.40625 180.074219 C 150.378906 192.25 158.089844 200.738281 167.882812 205.859375 C 174.980469 209.574219 183.175781 211.53125 191.074219 211.808594 C 196.042969 211.984375 204.734375 211.339844 212.8125 206.121094 C 214.539062 205.007812 216.242188 203.691406 217.863281 202.125 C 225.820312 194.445312 229.859375 182.992188 229.859375 168.082031 C 229.859375 149.082031 217.425781 139.75 209.207031 133.570312 C 205.304688 130.644531 202.496094 128.53125 201.980469 126.039062 C 201.476562 123.617188 200.363281 116.636719 200.222656 102.4375 L 203.824219 102.4375 C 203.953125 116.304688 205.027344 122.992188 205.503906 125.308594 C 205.742188 126.460938 208.601562 128.613281 211.367188 130.6875 C 219.644531 136.902344 233.480469 147.289062 233.480469 168.085938 Z M 233.480469 168.085938 " fill-opacity="1" fill-rule="nonzero"/><path fill="#d3ebff" d="M 178.667969 108.027344 C 178.335938 108.027344 178.066406 107.757812 178.066406 107.425781 C 178.066406 107.097656 178.335938 106.828125 178.667969 106.828125 L 195.0625 106.824219 C 195.394531 106.824219 195.664062 107.089844 195.664062 107.421875 C 195.664062 107.753906 195.394531 108.023438 195.0625 108.023438 Z M 178.667969 108.027344 " fill-opacity="1" fill-rule="nonzero"/><g fill="#a3b9ff" fill-opacity="0.8"><g transform="translate(76.137571, 278.117663)"><g><path d="M 12.40625 -24.234375 L 12.40625 -20.25 L 22.453125 -20.25 L 22.453125 -12.640625 L 12.40625 -12.640625 L 12.40625 -8.078125 L 23.8125 -8.078125 L 23.8125 0 L 2.28125 0 L 2.28125 -32.296875 L 23.8125 -32.296875 L 23.8125 -24.234375 Z M 12.40625 -24.234375 "/></g></g></g><g fill="#a3b9ff" fill-opacity="0.8"><g transform="translate(101.502929, 278.117663)"><g><path d="M 14.921875 0.3125 C 11.054688 0.3125 7.867188 -0.585938 5.359375 -2.390625 C 2.847656 -4.203125 1.488281 -6.859375 1.28125 -10.359375 L 12.046875 -10.359375 C 12.191406 -8.503906 13.015625 -7.578125 14.515625 -7.578125 C 15.054688 -7.578125 15.515625 -7.703125 15.890625 -7.953125 C 16.273438 -8.210938 16.46875 -8.617188 16.46875 -9.171875 C 16.46875 -9.929688 16.054688 -10.546875 15.234375 -11.015625 C 14.410156 -11.484375 13.132812 -12.023438 11.40625 -12.640625 C 9.332031 -13.367188 7.617188 -14.082031 6.265625 -14.78125 C 4.921875 -15.476562 3.757812 -16.492188 2.78125 -17.828125 C 1.8125 -19.171875 1.34375 -20.894531 1.375 -23 C 1.375 -25.09375 1.910156 -26.875 2.984375 -28.34375 C 4.066406 -29.820312 5.539062 -30.941406 7.40625 -31.703125 C 9.28125 -32.460938 11.390625 -32.84375 13.734375 -32.84375 C 17.691406 -32.84375 20.832031 -31.929688 23.15625 -30.109375 C 25.476562 -28.285156 26.703125 -25.71875 26.828125 -22.40625 L 15.921875 -22.40625 C 15.890625 -23.3125 15.660156 -23.960938 15.234375 -24.359375 C 14.804688 -24.753906 14.289062 -24.953125 13.6875 -24.953125 C 13.257812 -24.953125 12.910156 -24.804688 12.640625 -24.515625 C 12.367188 -24.234375 12.234375 -23.832031 12.234375 -23.3125 C 12.234375 -22.582031 12.632812 -21.984375 13.4375 -21.515625 C 14.238281 -21.046875 15.523438 -20.472656 17.296875 -19.796875 C 19.328125 -19.035156 21.003906 -18.304688 22.328125 -17.609375 C 23.648438 -16.910156 24.796875 -15.9375 25.765625 -14.6875 C 26.742188 -13.445312 27.234375 -11.878906 27.234375 -9.984375 C 27.234375 -8.015625 26.742188 -6.242188 25.765625 -4.671875 C 24.796875 -3.109375 23.382812 -1.882812 21.53125 -1 C 19.675781 -0.125 17.472656 0.3125 14.921875 0.3125 Z M 14.921875 0.3125 "/></g></g></g><g fill="#a3b9ff" fill-opacity="0.8"><g transform="translate(130.016145, 278.117663)"><g><path d="M 27.65625 -32.296875 L 27.65625 -24.265625 L 19.078125 -24.265625 L 19.078125 0 L 8.9375 0 L 8.9375 -24.265625 L 0.453125 -24.265625 L 0.453125 -32.296875 Z M 27.65625 -32.296875 "/></g></g></g><g fill="#a3b9ff" fill-opacity="0.8"><g transform="translate(158.118781, 278.117663)"><g><path d="M 12.40625 -24.234375 L 12.40625 -20.25 L 22.453125 -20.25 L 22.453125 -12.640625 L 12.40625 -12.640625 L 12.40625 -8.078125 L 23.8125 -8.078125 L 23.8125 0 L 2.28125 0 L 2.28125 -32.296875 L 23.8125 -32.296875 L 23.8125 -24.234375 Z M 12.40625 -24.234375 "/></g></g></g><g fill="#a3b9ff" fill-opacity="0.8"><g transform="translate(183.48414, 278.117663)"><g><path d="M 23.546875 5.25 L 20.4375 0.140625 C 19.738281 0.253906 18.929688 0.3125 18.015625 0.3125 C 14.972656 0.3125 12.179688 -0.398438 9.640625 -1.828125 C 7.109375 -3.253906 5.097656 -5.226562 3.609375 -7.75 C 2.117188 -10.28125 1.375 -13.125 1.375 -16.28125 C 1.375 -19.445312 2.117188 -22.289062 3.609375 -24.8125 C 5.097656 -27.34375 7.109375 -29.3125 9.640625 -30.71875 C 12.179688 -32.132812 14.972656 -32.84375 18.015625 -32.84375 C 21.054688 -32.84375 23.835938 -32.132812 26.359375 -30.71875 C 28.890625 -29.3125 30.890625 -27.34375 32.359375 -24.8125 C 33.835938 -22.289062 34.578125 -19.445312 34.578125 -16.28125 C 34.578125 -13.695312 34.078125 -11.316406 33.078125 -9.140625 C 32.078125 -6.972656 30.691406 -5.128906 28.921875 -3.609375 L 35.5 5.25 Z M 11.6875 -16.28125 C 11.6875 -14.09375 12.234375 -12.351562 13.328125 -11.0625 C 14.421875 -9.769531 15.984375 -9.125 18.015625 -9.125 C 20.023438 -9.125 21.578125 -9.769531 22.671875 -11.0625 C 23.765625 -12.351562 24.3125 -14.09375 24.3125 -16.28125 C 24.3125 -18.507812 23.765625 -20.269531 22.671875 -21.5625 C 21.578125 -22.851562 20.023438 -23.5 18.015625 -23.5 C 15.984375 -23.5 14.421875 -22.851562 13.328125 -21.5625 C 12.234375 -20.269531 11.6875 -18.507812 11.6875 -16.28125 Z M 11.6875 -16.28125 "/></g></g></g><g fill="#a3b9ff" fill-opacity="0.8"><g transform="translate(219.433611, 278.117663)"><g><path d="M 12.1875 -32.296875 L 12.1875 -14.09375 C 12.1875 -12.601562 12.507812 -11.425781 13.15625 -10.5625 C 13.8125 -9.695312 14.867188 -9.265625 16.328125 -9.265625 C 17.796875 -9.265625 18.878906 -9.695312 19.578125 -10.5625 C 20.273438 -11.425781 20.625 -12.601562 20.625 -14.09375 L 20.625 -32.296875 L 30.703125 -32.296875 L 30.703125 -14.09375 C 30.703125 -11.019531 30.0625 -8.394531 28.78125 -6.21875 C 27.507812 -4.050781 25.765625 -2.421875 23.546875 -1.328125 C 21.328125 -0.234375 18.847656 0.3125 16.109375 0.3125 C 13.367188 0.3125 10.941406 -0.234375 8.828125 -1.328125 C 6.710938 -2.421875 5.0625 -4.046875 3.875 -6.203125 C 2.6875 -8.359375 2.09375 -10.988281 2.09375 -14.09375 L 2.09375 -32.296875 Z M 12.1875 -32.296875 "/></g></g></g><g fill="#a3b9ff" fill-opacity="0.8"><g transform="translate(252.235226, 278.117663)"><g><path d="M 12.40625 -32.296875 L 12.40625 0 L 2.28125 0 L 2.28125 -32.296875 Z M 12.40625 -32.296875 "/></g></g></g><g fill="#a3b9ff" fill-opacity="0.8"><g transform="translate(266.925239, 278.117663)"><g><path d="M 18.015625 0.3125 C 14.972656 0.3125 12.179688 -0.398438 9.640625 -1.828125 C 7.109375 -3.253906 5.097656 -5.226562 3.609375 -7.75 C 2.117188 -10.28125 1.375 -13.125 1.375 -16.28125 C 1.375 -19.445312 2.117188 -22.289062 3.609375 -24.8125 C 5.097656 -27.34375 7.109375 -29.3125 9.640625 -30.71875 C 12.179688 -32.132812 14.972656 -32.84375 18.015625 -32.84375 C 21.054688 -32.84375 23.835938 -32.132812 26.359375 -30.71875 C 28.890625 -29.3125 30.890625 -27.34375 32.359375 -24.8125 C 33.835938 -22.289062 34.578125 -19.445312 34.578125 -16.28125 C 34.578125 -13.125 33.835938 -10.28125 32.359375 -7.75 C 30.890625 -5.226562 28.882812 -3.253906 26.34375 -1.828125 C 23.800781 -0.398438 21.023438 0.3125 18.015625 0.3125 Z M 18.015625 -9.125 C 20.023438 -9.125 21.578125 -9.769531 22.671875 -11.0625 C 23.765625 -12.351562 24.3125 -14.09375 24.3125 -16.28125 C 24.3125 -18.507812 23.765625 -20.269531 22.671875 -21.5625 C 21.578125 -22.851562 20.023438 -23.5 18.015625 -23.5 C 15.984375 -23.5 14.421875 -22.851562 13.328125 -21.5625 C 12.234375 -20.269531 11.6875 -18.507812 11.6875 -16.28125 C 11.6875 -14.09375 12.234375 -12.351562 13.328125 -11.0625 C 14.421875 -9.769531 15.984375 -9.125 18.015625 -9.125 Z M 18.015625 -9.125 "/></g></g></g><g fill="#a3ffed" fill-opacity="1"><g transform="translate(74.121093, 276.101187)"><g><path d="M 12.40625 -24.234375 L 12.40625 -20.25 L 22.453125 -20.25 L 22.453125 -12.640625 L 12.40625 -12.640625 L 12.40625 -8.078125 L 23.8125 -8.078125 L 23.8125 0 L 2.28125 0 L 2.28125 -32.296875 L 23.8125 -32.296875 L 23.8125 -24.234375 Z M 12.40625 -24.234375 "/></g></g></g><g fill="#a3ffed" fill-opacity="1"><g transform="translate(99.486452, 276.101187)"><g><path d="M 14.921875 0.3125 C 11.054688 0.3125 7.867188 -0.585938 5.359375 -2.390625 C 2.847656 -4.203125 1.488281 -6.859375 1.28125 -10.359375 L 12.046875 -10.359375 C 12.191406 -8.503906 13.015625 -7.578125 14.515625 -7.578125 C 15.054688 -7.578125 15.515625 -7.703125 15.890625 -7.953125 C 16.273438 -8.210938 16.46875 -8.617188 16.46875 -9.171875 C 16.46875 -9.929688 16.054688 -10.546875 15.234375 -11.015625 C 14.410156 -11.484375 13.132812 -12.023438 11.40625 -12.640625 C 9.332031 -13.367188 7.617188 -14.082031 6.265625 -14.78125 C 4.921875 -15.476562 3.757812 -16.492188 2.78125 -17.828125 C 1.8125 -19.171875 1.34375 -20.894531 1.375 -23 C 1.375 -25.09375 1.910156 -26.875 2.984375 -28.34375 C 4.066406 -29.820312 5.539062 -30.941406 7.40625 -31.703125 C 9.28125 -32.460938 11.390625 -32.84375 13.734375 -32.84375 C 17.691406 -32.84375 20.832031 -31.929688 23.15625 -30.109375 C 25.476562 -28.285156 26.703125 -25.71875 26.828125 -22.40625 L 15.921875 -22.40625 C 15.890625 -23.3125 15.660156 -23.960938 15.234375 -24.359375 C 14.804688 -24.753906 14.289062 -24.953125 13.6875 -24.953125 C 13.257812 -24.953125 12.910156 -24.804688 12.640625 -24.515625 C 12.367188 -24.234375 12.234375 -23.832031 12.234375 -23.3125 C 12.234375 -22.582031 12.632812 -21.984375 13.4375 -21.515625 C 14.238281 -21.046875 15.523438 -20.472656 17.296875 -19.796875 C 19.328125 -19.035156 21.003906 -18.304688 22.328125 -17.609375 C 23.648438 -16.910156 24.796875 -15.9375 25.765625 -14.6875 C 26.742188 -13.445312 27.234375 -11.878906 27.234375 -9.984375 C 27.234375 -8.015625 26.742188 -6.242188 25.765625 -4.671875 C 24.796875 -3.109375 23.382812 -1.882812 21.53125 -1 C 19.675781 -0.125 17.472656 0.3125 14.921875 0.3125 Z M 14.921875 0.3125 "/></g></g></g><g fill="#a3ffed" fill-opacity="1"><g transform="translate(127.999668, 276.101187)"><g><path d="M 27.65625 -32.296875 L 27.65625 -24.265625 L 19.078125 -24.265625 L 19.078125 0 L 8.9375 0 L 8.9375 -24.265625 L 0.453125 -24.265625 L 0.453125 -32.296875 Z M 27.65625 -32.296875 "/></g></g></g><g fill="#a3ffed" fill-opacity="1"><g transform="translate(156.102304, 276.101187)"><g><path d="M 12.40625 -24.234375 L 12.40625 -20.25 L 22.453125 -20.25 L 22.453125 -12.640625 L 12.40625 -12.640625 L 12.40625 -8.078125 L 23.8125 -8.078125 L 23.8125 0 L 2.28125 0 L 2.28125 -32.296875 L 23.8125 -32.296875 L 23.8125 -24.234375 Z M 12.40625 -24.234375 "/></g></g></g><g fill="#a3ffed" fill-opacity="1"><g transform="translate(181.467662, 276.101187)"><g><path d="M 23.546875 5.25 L 20.4375 0.140625 C 19.738281 0.253906 18.929688 0.3125 18.015625 0.3125 C 14.972656 0.3125 12.179688 -0.398438 9.640625 -1.828125 C 7.109375 -3.253906 5.097656 -5.226562 3.609375 -7.75 C 2.117188 -10.28125 1.375 -13.125 1.375 -16.28125 C 1.375 -19.445312 2.117188 -22.289062 3.609375 -24.8125 C 5.097656 -27.34375 7.109375 -29.3125 9.640625 -30.71875 C 12.179688 -32.132812 14.972656 -32.84375 18.015625 -32.84375 C 21.054688 -32.84375 23.835938 -32.132812 26.359375 -30.71875 C 28.890625 -29.3125 30.890625 -27.34375 32.359375 -24.8125 C 33.835938 -22.289062 34.578125 -19.445312 34.578125 -16.28125 C 34.578125 -13.695312 34.078125 -11.316406 33.078125 -9.140625 C 32.078125 -6.972656 30.691406 -5.128906 28.921875 -3.609375 L 35.5 5.25 Z M 11.6875 -16.28125 C 11.6875 -14.09375 12.234375 -12.351562 13.328125 -11.0625 C 14.421875 -9.769531 15.984375 -9.125 18.015625 -9.125 C 20.023438 -9.125 21.578125 -9.769531 22.671875 -11.0625 C 23.765625 -12.351562 24.3125 -14.09375 24.3125 -16.28125 C 24.3125 -18.507812 23.765625 -20.269531 22.671875 -21.5625 C 21.578125 -22.851562 20.023438 -23.5 18.015625 -23.5 C 15.984375 -23.5 14.421875 -22.851562 13.328125 -21.5625 C 12.234375 -20.269531 11.6875 -18.507812 11.6875 -16.28125 Z M 11.6875 -16.28125 "/></g></g></g><g fill="#a3ffed" fill-opacity="1"><g transform="translate(217.417134, 276.101187)"><g><path d="M 12.1875 -32.296875 L 12.1875 -14.09375 C 12.1875 -12.601562 12.507812 -11.425781 13.15625 -10.5625 C 13.8125 -9.695312 14.867188 -9.265625 16.328125 -9.265625 C 17.796875 -9.265625 18.878906 -9.695312 19.578125 -10.5625 C 20.273438 -11.425781 20.625 -12.601562 20.625 -14.09375 L 20.625 -32.296875 L 30.703125 -32.296875 L 30.703125 -14.09375 C 30.703125 -11.019531 30.0625 -8.394531 28.78125 -6.21875 C 27.507812 -4.050781 25.765625 -2.421875 23.546875 -1.328125 C 21.328125 -0.234375 18.847656 0.3125 16.109375 0.3125 C 13.367188 0.3125 10.941406 -0.234375 8.828125 -1.328125 C 6.710938 -2.421875 5.0625 -4.046875 3.875 -6.203125 C 2.6875 -8.359375 2.09375 -10.988281 2.09375 -14.09375 L 2.09375 -32.296875 Z M 12.1875 -32.296875 "/></g></g></g><g fill="#a3ffed" fill-opacity="1"><g transform="translate(250.218749, 276.101187)"><g><path d="M 12.40625 -32.296875 L 12.40625 0 L 2.28125 0 L 2.28125 -32.296875 Z M 12.40625 -32.296875 "/></g></g></g><g fill="#a3ffed" fill-opacity="1"><g transform="translate(264.908761, 276.101187)"><g><path d="M 18.015625 0.3125 C 14.972656 0.3125 12.179688 -0.398438 9.640625 -1.828125 C 7.109375 -3.253906 5.097656 -5.226562 3.609375 -7.75 C 2.117188 -10.28125 1.375 -13.125 1.375 -16.28125 C 1.375 -19.445312 2.117188 -22.289062 3.609375 -24.8125 C 5.097656 -27.34375 7.109375 -29.3125 9.640625 -30.71875 C 12.179688 -32.132812 14.972656 -32.84375 18.015625 -32.84375 C 21.054688 -32.84375 23.835938 -32.132812 26.359375 -30.71875 C 28.890625 -29.3125 30.890625 -27.34375 32.359375 -24.8125 C 33.835938 -22.289062 34.578125 -19.445312 34.578125 -16.28125 C 34.578125 -13.125 33.835938 -10.28125 32.359375 -7.75 C 30.890625 -5.226562 28.882812 -3.253906 26.34375 -1.828125 C 23.800781 -0.398438 21.023438 0.3125 18.015625 0.3125 Z M 18.015625 -9.125 C 20.023438 -9.125 21.578125 -9.769531 22.671875 -11.0625 C 23.765625 -12.351562 24.3125 -14.09375 24.3125 -16.28125 C 24.3125 -18.507812 23.765625 -20.269531 22.671875 -21.5625 C 21.578125 -22.851562 20.023438 -23.5 18.015625 -23.5 C 15.984375 -23.5 14.421875 -22.851562 13.328125 -21.5625 C 12.234375 -20.269531 11.6875 -18.507812 11.6875 -16.28125 C 11.6875 -14.09375 12.234375 -12.351562 13.328125 -11.0625 C 14.421875 -9.769531 15.984375 -9.125 18.015625 -9.125 Z M 18.015625 -9.125 "/></g></g></g></svg>