<svg xmlns="http://www.w3.org/2000/svg" xmlns:xlink="http://www.w3.org/1999/xlink" width="2560" zoomAndPan="magnify" viewBox="0 0 1920 1079.999946" height="1440" preserveAspectRatio="xMidYMid meet" version="1.0"><defs><g/><clipPath id="7888f950fc"><rect x="0" width="1568" y="0" height="223"/></clipPath></defs><g transform="matrix(1, 0, 0, 1, 176, 428)"><g clip-path="url(#7888f950fc)"><g fill="#d90452" fill-opacity="1"><g transform="translate(0.928156, 166.762865)"><g><path d="M 135.1875 -110.734375 L 135.1875 0 L 108.21875 0 L 108.21875 -66.40625 L 83.453125 0 L 61.6875 0 L 36.75 -66.578125 L 36.75 0 L 9.78125 0 L 9.78125 -110.734375 L 41.640625 -110.734375 L 72.71875 -34.078125 L 103.484375 -110.734375 Z M 135.1875 -110.734375 "/></g></g></g><g fill="#0fb2f2" fill-opacity="1"><g transform="translate(145.748399, 166.762865)"><g><path d="M 23.34375 -97.171875 C 18.613281 -97.171875 14.75 -98.5625 11.75 -101.34375 C 8.75 -104.132812 7.25 -107.582031 7.25 -111.6875 C 7.25 -115.894531 8.75 -119.390625 11.75 -122.171875 C 14.75 -124.960938 18.613281 -126.359375 23.34375 -126.359375 C 27.96875 -126.359375 31.78125 -124.960938 34.78125 -122.171875 C 37.78125 -119.390625 39.28125 -115.894531 39.28125 -111.6875 C 39.28125 -107.582031 37.78125 -104.132812 34.78125 -101.34375 C 31.78125 -98.5625 27.96875 -97.171875 23.34375 -97.171875 Z M 36.75 -88.03125 L 36.75 0 L 9.78125 0 L 9.78125 -88.03125 Z M 36.75 -88.03125 "/></g></g></g><g fill="#1dcbf2" fill-opacity="1"><g transform="translate(192.284305, 166.762865)"><g><path d="M 63.421875 -88.96875 C 73.722656 -88.96875 81.945312 -85.628906 88.09375 -78.953125 C 94.25 -72.273438 97.328125 -63.097656 97.328125 -51.421875 L 97.328125 0 L 70.515625 0 L 70.515625 -47.796875 C 70.515625 -53.679688 68.988281 -58.253906 65.9375 -61.515625 C 62.882812 -64.773438 58.785156 -66.40625 53.640625 -66.40625 C 48.484375 -66.40625 44.378906 -64.773438 41.328125 -61.515625 C 38.273438 -58.253906 36.75 -53.679688 36.75 -47.796875 L 36.75 0 L 9.78125 0 L 9.78125 -88.03125 L 36.75 -88.03125 L 36.75 -76.34375 C 39.488281 -80.238281 43.171875 -83.316406 47.796875 -85.578125 C 52.421875 -87.835938 57.628906 -88.96875 63.421875 -88.96875 Z M 63.421875 -88.96875 "/></g></g></g><g fill="#15bfa0" fill-opacity="1"><g transform="translate(298.607234, 166.762865)"><g><path d="M 23.34375 -97.171875 C 18.613281 -97.171875 14.75 -98.5625 11.75 -101.34375 C 8.75 -104.132812 7.25 -107.582031 7.25 -111.6875 C 7.25 -115.894531 8.75 -119.390625 11.75 -122.171875 C 14.75 -124.960938 18.613281 -126.359375 23.34375 -126.359375 C 27.96875 -126.359375 31.78125 -124.960938 34.78125 -122.171875 C 37.78125 -119.390625 39.28125 -115.894531 39.28125 -111.6875 C 39.28125 -107.582031 37.78125 -104.132812 34.78125 -101.34375 C 31.78125 -98.5625 27.96875 -97.171875 23.34375 -97.171875 Z M 36.75 -88.03125 L 36.75 0 L 9.78125 0 L 9.78125 -88.03125 Z M 36.75 -88.03125 "/></g></g></g><g fill="#f2d027" fill-opacity="1"><g transform="translate(345.14314, 166.762865)"><g><path d="M 5.203125 -55.53125 C 5.203125 -66.46875 7.566406 -76.21875 12.296875 -84.78125 C 17.035156 -93.351562 23.632812 -100.03125 32.09375 -104.8125 C 40.5625 -109.601562 50.160156 -112 60.890625 -112 C 74.035156 -112 85.285156 -108.523438 94.640625 -101.578125 C 104.003906 -94.640625 110.265625 -85.179688 113.421875 -73.203125 L 83.765625 -73.203125 C 81.554688 -77.828125 78.425781 -81.347656 74.375 -83.765625 C 70.332031 -86.179688 65.734375 -87.390625 60.578125 -87.390625 C 52.265625 -87.390625 45.53125 -84.5 40.375 -78.71875 C 35.226562 -72.9375 32.65625 -65.207031 32.65625 -55.53125 C 32.65625 -45.851562 35.226562 -38.117188 40.375 -32.328125 C 45.53125 -26.546875 52.265625 -23.65625 60.578125 -23.65625 C 65.734375 -23.65625 70.332031 -24.863281 74.375 -27.28125 C 78.425781 -29.707031 81.554688 -33.234375 83.765625 -37.859375 L 113.421875 -37.859375 C 110.265625 -25.867188 104.003906 -16.429688 94.640625 -9.546875 C 85.285156 -2.660156 74.035156 0.78125 60.890625 0.78125 C 50.160156 0.78125 40.5625 -1.609375 32.09375 -6.390625 C 23.632812 -11.171875 17.035156 -17.820312 12.296875 -26.34375 C 7.566406 -34.863281 5.203125 -44.59375 5.203125 -55.53125 Z M 5.203125 -55.53125 "/></g></g></g><g fill="#d90452" fill-opacity="1"><g transform="translate(465.345198, 166.762865)"><g><path d="M 92.75 -45.4375 C 92.75 -42.90625 92.59375 -40.273438 92.28125 -37.546875 L 31.234375 -37.546875 C 31.648438 -32.078125 33.410156 -27.894531 36.515625 -25 C 39.617188 -22.113281 43.429688 -20.671875 47.953125 -20.671875 C 54.679688 -20.671875 59.363281 -23.507812 62 -29.1875 L 90.703125 -29.1875 C 89.234375 -23.394531 86.578125 -18.1875 82.734375 -13.5625 C 78.898438 -8.9375 74.085938 -5.304688 68.296875 -2.671875 C 62.515625 -0.046875 56.050781 1.265625 48.90625 1.265625 C 40.28125 1.265625 32.601562 -0.570312 25.875 -4.25 C 19.144531 -7.9375 13.882812 -13.195312 10.09375 -20.03125 C 6.3125 -26.863281 4.421875 -34.859375 4.421875 -44.015625 C 4.421875 -53.160156 6.285156 -61.148438 10.015625 -67.984375 C 13.753906 -74.828125 18.988281 -80.085938 25.71875 -83.765625 C 32.445312 -87.441406 40.175781 -89.28125 48.90625 -89.28125 C 57.425781 -89.28125 65 -87.492188 71.625 -83.921875 C 78.25 -80.347656 83.425781 -75.25 87.15625 -68.625 C 90.882812 -62 92.75 -54.269531 92.75 -45.4375 Z M 65.15625 -52.53125 C 65.15625 -57.15625 63.578125 -60.832031 60.421875 -63.5625 C 57.265625 -66.300781 53.320312 -67.671875 48.59375 -67.671875 C 44.0625 -67.671875 40.242188 -66.351562 37.140625 -63.71875 C 34.046875 -61.09375 32.128906 -57.363281 31.390625 -52.53125 Z M 65.15625 -52.53125 "/></g></g></g><g fill="#0fb2f2" fill-opacity="1"><g transform="translate(562.514814, 166.762865)"><g><path d="M 63.421875 -88.96875 C 73.722656 -88.96875 81.945312 -85.628906 88.09375 -78.953125 C 94.25 -72.273438 97.328125 -63.097656 97.328125 -51.421875 L 97.328125 0 L 70.515625 0 L 70.515625 -47.796875 C 70.515625 -53.679688 68.988281 -58.253906 65.9375 -61.515625 C 62.882812 -64.773438 58.785156 -66.40625 53.640625 -66.40625 C 48.484375 -66.40625 44.378906 -64.773438 41.328125 -61.515625 C 38.273438 -58.253906 36.75 -53.679688 36.75 -47.796875 L 36.75 0 L 9.78125 0 L 9.78125 -88.03125 L 36.75 -88.03125 L 36.75 -76.34375 C 39.488281 -80.238281 43.171875 -83.316406 47.796875 -85.578125 C 52.421875 -87.835938 57.628906 -88.96875 63.421875 -88.96875 Z M 63.421875 -88.96875 "/></g></g></g><g fill="#1dcbf2" fill-opacity="1"><g transform="translate(668.837742, 166.762865)"><g><path d="M 58.84375 -22.875 L 58.84375 0 L 45.109375 0 C 35.335938 0 27.71875 -2.390625 22.25 -7.171875 C 16.78125 -11.960938 14.046875 -19.773438 14.046875 -30.609375 L 14.046875 -65.625 L 3.3125 -65.625 L 3.3125 -88.03125 L 14.046875 -88.03125 L 14.046875 -109.484375 L 41.015625 -109.484375 L 41.015625 -88.03125 L 58.6875 -88.03125 L 58.6875 -65.625 L 41.015625 -65.625 L 41.015625 -30.28125 C 41.015625 -27.65625 41.644531 -25.765625 42.90625 -24.609375 C 44.164062 -23.453125 46.269531 -22.875 49.21875 -22.875 Z M 58.84375 -22.875 "/></g></g></g><g fill="#15bfa0" fill-opacity="1"><g transform="translate(732.895265, 166.762865)"><g><path d="M 36.75 -73.359375 C 39.90625 -78.191406 43.847656 -82 48.578125 -84.78125 C 53.316406 -87.570312 58.578125 -88.96875 64.359375 -88.96875 L 64.359375 -60.421875 L 56.953125 -60.421875 C 50.222656 -60.421875 45.171875 -58.972656 41.796875 -56.078125 C 38.429688 -53.179688 36.75 -48.109375 36.75 -40.859375 L 36.75 0 L 9.78125 0 L 9.78125 -88.03125 L 36.75 -88.03125 Z M 36.75 -73.359375 "/></g></g></g><g fill="#f2d027" fill-opacity="1"><g transform="translate(800.422565, 166.762865)"><g><path d="M 4.421875 -44.171875 C 4.421875 -53.210938 6.128906 -61.148438 9.546875 -67.984375 C 12.960938 -74.828125 17.613281 -80.085938 23.5 -83.765625 C 29.394531 -87.441406 35.96875 -89.28125 43.21875 -89.28125 C 49.425781 -89.28125 54.867188 -88.019531 59.546875 -85.5 C 64.234375 -82.976562 67.835938 -79.664062 70.359375 -75.5625 L 70.359375 -88.03125 L 97.328125 -88.03125 L 97.328125 0 L 70.359375 0 L 70.359375 -12.46875 C 67.722656 -8.363281 64.066406 -5.046875 59.390625 -2.515625 C 54.710938 0.00390625 49.269531 1.265625 43.0625 1.265625 C 35.914062 1.265625 29.394531 -0.597656 23.5 -4.328125 C 17.613281 -8.066406 12.960938 -13.378906 9.546875 -20.265625 C 6.128906 -27.160156 4.421875 -35.128906 4.421875 -44.171875 Z M 70.359375 -44.015625 C 70.359375 -50.742188 68.488281 -56.050781 64.75 -59.9375 C 61.019531 -63.832031 56.472656 -65.78125 51.109375 -65.78125 C 45.742188 -65.78125 41.191406 -63.859375 37.453125 -60.015625 C 33.722656 -56.179688 31.859375 -50.898438 31.859375 -44.171875 C 31.859375 -37.441406 33.722656 -32.101562 37.453125 -28.15625 C 41.191406 -24.21875 45.742188 -22.25 51.109375 -22.25 C 56.472656 -22.25 61.019531 -24.191406 64.75 -28.078125 C 68.488281 -31.972656 70.359375 -37.285156 70.359375 -44.015625 Z M 70.359375 -44.015625 "/></g></g></g><g fill="#d90452" fill-opacity="1"><g transform="translate(907.530512, 166.762865)"><g><path d="M 36.75 -116.734375 L 36.75 0 L 9.78125 0 L 9.78125 -116.734375 Z M 36.75 -116.734375 "/></g></g></g><g fill="#000000" fill-opacity="1"><g transform="translate(954.066418, 166.762865)"><g/></g></g><g fill="#0fb2f2" fill-opacity="1"><g transform="translate(987.508214, 166.762865)"><g><path d="M 83.296875 -75.71875 C 81.296875 -79.394531 78.425781 -82.207031 74.6875 -84.15625 C 70.957031 -86.101562 66.566406 -87.078125 61.515625 -87.078125 C 52.785156 -87.078125 45.789062 -84.210938 40.53125 -78.484375 C 35.28125 -72.753906 32.65625 -65.101562 32.65625 -55.53125 C 32.65625 -45.320312 35.414062 -37.351562 40.9375 -31.625 C 46.457031 -25.894531 54.054688 -23.03125 63.734375 -23.03125 C 70.359375 -23.03125 75.957031 -24.710938 80.53125 -28.078125 C 85.101562 -31.441406 88.441406 -36.28125 90.546875 -42.59375 L 56.3125 -42.59375 L 56.3125 -62.46875 L 115 -62.46875 L 115 -37.390625 C 113 -30.660156 109.601562 -24.398438 104.8125 -18.609375 C 100.03125 -12.828125 93.957031 -8.148438 86.59375 -4.578125 C 79.238281 -1.003906 70.9375 0.78125 61.6875 0.78125 C 50.75 0.78125 40.992188 -1.609375 32.421875 -6.390625 C 23.847656 -11.171875 17.164062 -17.820312 12.375 -26.34375 C 7.59375 -34.863281 5.203125 -44.59375 5.203125 -55.53125 C 5.203125 -66.46875 7.59375 -76.21875 12.375 -84.78125 C 17.164062 -93.351562 23.816406 -100.03125 32.328125 -104.8125 C 40.847656 -109.601562 50.578125 -112 61.515625 -112 C 74.773438 -112 85.953125 -108.789062 95.046875 -102.375 C 104.140625 -95.957031 110.160156 -87.070312 113.109375 -75.71875 Z M 83.296875 -75.71875 "/></g></g></g><g fill="#1dcbf2" fill-opacity="1"><g transform="translate(1107.710272, 166.762865)"><g><path d="M 4.421875 -44.171875 C 4.421875 -53.210938 6.128906 -61.148438 9.546875 -67.984375 C 12.960938 -74.828125 17.613281 -80.085938 23.5 -83.765625 C 29.394531 -87.441406 35.96875 -89.28125 43.21875 -89.28125 C 49.425781 -89.28125 54.867188 -88.019531 59.546875 -85.5 C 64.234375 -82.976562 67.835938 -79.664062 70.359375 -75.5625 L 70.359375 -88.03125 L 97.328125 -88.03125 L 97.328125 0 L 70.359375 0 L 70.359375 -12.46875 C 67.722656 -8.363281 64.066406 -5.046875 59.390625 -2.515625 C 54.710938 0.00390625 49.269531 1.265625 43.0625 1.265625 C 35.914062 1.265625 29.394531 -0.597656 23.5 -4.328125 C 17.613281 -8.066406 12.960938 -13.378906 9.546875 -20.265625 C 6.128906 -27.160156 4.421875 -35.128906 4.421875 -44.171875 Z M 70.359375 -44.015625 C 70.359375 -50.742188 68.488281 -56.050781 64.75 -59.9375 C 61.019531 -63.832031 56.472656 -65.78125 51.109375 -65.78125 C 45.742188 -65.78125 41.191406 -63.859375 37.453125 -60.015625 C 33.722656 -56.179688 31.859375 -50.898438 31.859375 -44.171875 C 31.859375 -37.441406 33.722656 -32.101562 37.453125 -28.15625 C 41.191406 -24.21875 45.742188 -22.25 51.109375 -22.25 C 56.472656 -22.25 61.019531 -24.191406 64.75 -28.078125 C 68.488281 -31.972656 70.359375 -37.285156 70.359375 -44.015625 Z M 70.359375 -44.015625 "/></g></g></g><g fill="#15bfa0" fill-opacity="1"><g transform="translate(1214.818218, 166.762865)"><g><path d="M 122.09375 -88.96875 C 133.03125 -88.96875 141.734375 -85.65625 148.203125 -79.03125 C 154.671875 -72.40625 157.90625 -63.203125 157.90625 -51.421875 L 157.90625 0 L 131.09375 0 L 131.09375 -47.796875 C 131.09375 -53.472656 129.59375 -57.863281 126.59375 -60.96875 C 123.59375 -64.070312 119.460938 -65.625 114.203125 -65.625 C 108.953125 -65.625 104.828125 -64.070312 101.828125 -60.96875 C 98.828125 -57.863281 97.328125 -53.472656 97.328125 -47.796875 L 97.328125 0 L 70.515625 0 L 70.515625 -47.796875 C 70.515625 -53.472656 69.015625 -57.863281 66.015625 -60.96875 C 63.015625 -64.070312 58.890625 -65.625 53.640625 -65.625 C 48.378906 -65.625 44.25 -64.070312 41.25 -60.96875 C 38.25 -57.863281 36.75 -53.472656 36.75 -47.796875 L 36.75 0 L 9.78125 0 L 9.78125 -88.03125 L 36.75 -88.03125 L 36.75 -76.984375 C 39.488281 -80.660156 43.066406 -83.578125 47.484375 -85.734375 C 51.898438 -87.890625 56.894531 -88.96875 62.46875 -88.96875 C 69.09375 -88.96875 75.007812 -87.546875 80.21875 -84.703125 C 85.425781 -81.867188 89.5 -77.820312 92.4375 -72.5625 C 95.488281 -77.40625 99.644531 -81.347656 104.90625 -84.390625 C 110.164062 -87.441406 115.894531 -88.96875 122.09375 -88.96875 Z M 122.09375 -88.96875 "/></g></g></g><g fill="#f2d027" fill-opacity="1"><g transform="translate(1381.87019, 166.762865)"><g><path d="M 92.75 -45.4375 C 92.75 -42.90625 92.59375 -40.273438 92.28125 -37.546875 L 31.234375 -37.546875 C 31.648438 -32.078125 33.410156 -27.894531 36.515625 -25 C 39.617188 -22.113281 43.429688 -20.671875 47.953125 -20.671875 C 54.679688 -20.671875 59.363281 -23.507812 62 -29.1875 L 90.703125 -29.1875 C 89.234375 -23.394531 86.578125 -18.1875 82.734375 -13.5625 C 78.898438 -8.9375 74.085938 -5.304688 68.296875 -2.671875 C 62.515625 -0.046875 56.050781 1.265625 48.90625 1.265625 C 40.28125 1.265625 32.601562 -0.570312 25.875 -4.25 C 19.144531 -7.9375 13.882812 -13.195312 10.09375 -20.03125 C 6.3125 -26.863281 4.421875 -34.859375 4.421875 -44.015625 C 4.421875 -53.160156 6.285156 -61.148438 10.015625 -67.984375 C 13.753906 -74.828125 18.988281 -80.085938 25.71875 -83.765625 C 32.445312 -87.441406 40.175781 -89.28125 48.90625 -89.28125 C 57.425781 -89.28125 65 -87.492188 71.625 -83.921875 C 78.25 -80.347656 83.425781 -75.25 87.15625 -68.625 C 90.882812 -62 92.75 -54.269531 92.75 -45.4375 Z M 65.15625 -52.53125 C 65.15625 -57.15625 63.578125 -60.832031 60.421875 -63.5625 C 57.265625 -66.300781 53.320312 -67.671875 48.59375 -67.671875 C 44.0625 -67.671875 40.242188 -66.351562 37.140625 -63.71875 C 34.046875 -61.09375 32.128906 -57.363281 31.390625 -52.53125 Z M 65.15625 -52.53125 "/></g></g></g><g fill="#d90452" fill-opacity="1"><g transform="translate(1479.039806, 166.762865)"><g><path d="M 45.59375 1.265625 C 37.914062 1.265625 31.078125 -0.046875 25.078125 -2.671875 C 19.085938 -5.304688 14.351562 -8.910156 10.875 -13.484375 C 7.40625 -18.054688 5.460938 -23.1875 5.046875 -28.875 L 31.703125 -28.875 C 32.023438 -25.820312 33.445312 -23.347656 35.96875 -21.453125 C 38.488281 -19.554688 41.59375 -18.609375 45.28125 -18.609375 C 48.644531 -18.609375 51.242188 -19.265625 53.078125 -20.578125 C 54.921875 -21.898438 55.84375 -23.613281 55.84375 -25.71875 C 55.84375 -28.238281 54.523438 -30.101562 51.890625 -31.3125 C 49.265625 -32.519531 45.007812 -33.863281 39.125 -35.34375 C 32.8125 -36.8125 27.550781 -38.359375 23.34375 -39.984375 C 19.132812 -41.617188 15.503906 -44.195312 12.453125 -47.71875 C 9.410156 -51.238281 7.890625 -56 7.890625 -62 C 7.890625 -67.039062 9.28125 -71.640625 12.0625 -75.796875 C 14.851562 -79.953125 18.957031 -83.238281 24.375 -85.65625 C 29.789062 -88.070312 36.234375 -89.28125 43.703125 -89.28125 C 54.742188 -89.28125 63.441406 -86.546875 69.796875 -81.078125 C 76.160156 -75.609375 79.816406 -68.351562 80.765625 -59.3125 L 55.84375 -59.3125 C 55.425781 -62.363281 54.082031 -64.78125 51.8125 -66.5625 C 49.550781 -68.351562 46.582031 -69.25 42.90625 -69.25 C 39.75 -69.25 37.328125 -68.644531 35.640625 -67.4375 C 33.960938 -66.226562 33.125 -64.570312 33.125 -62.46875 C 33.125 -59.945312 34.460938 -58.050781 37.140625 -56.78125 C 39.828125 -55.519531 44.007812 -54.257812 49.6875 -53 C 56.207031 -51.320312 61.519531 -49.664062 65.625 -48.03125 C 69.726562 -46.40625 73.328125 -43.773438 76.421875 -40.140625 C 79.523438 -36.515625 81.128906 -31.65625 81.234375 -25.5625 C 81.234375 -20.40625 79.785156 -15.800781 76.890625 -11.75 C 74.003906 -7.695312 69.851562 -4.515625 64.4375 -2.203125 C 59.019531 0.109375 52.738281 1.265625 45.59375 1.265625 Z M 45.59375 1.265625 "/></g></g></g></g></g></svg>