<svg xmlns="http://www.w3.org/2000/svg" xmlns:xlink="http://www.w3.org/1999/xlink" width="64" zoomAndPan="magnify" viewBox="0 0 48 30.000001" height="40" preserveAspectRatio="xMidYMid meet" version="1.0"><defs><clipPath id="1633e025ee"><path d="M 9.484375 0 L 38.515625 0 L 38.515625 29.03125 L 9.484375 29.03125 Z M 9.484375 0 " clip-rule="nonzero"/></clipPath></defs><g clip-path="url(#1633e025ee)"><path fill="#000000" d="M 12.476562 13.917969 C 12.621094 13.910156 12.761719 13.910156 12.898438 13.925781 C 14.40625 14.09375 13.980469 14.789062 15.421875 15.542969 C 16.863281 16.296875 16.25 16.636719 15.984375 17.683594 C 15.722656 18.734375 16.792969 20.972656 17.777344 21.726562 C 18.53125 22.304688 18.136719 24.820312 17.910156 25.988281 C 13.804688 23.808594 11.015625 19.496094 11.015625 14.519531 C 11.015625 14.453125 11.023438 14.386719 11.023438 14.320312 C 11.417969 14.148438 11.933594 13.957031 12.476562 13.917969 Z M 24 1.535156 C 25.679688 1.535156 27.285156 1.855469 28.757812 2.433594 C 28.738281 2.507812 28.703125 2.648438 28.636719 3.007812 C 28.402344 4.238281 29.066406 4.746094 29.585938 4.234375 C 30.105469 3.722656 31.035156 4.183594 30.539062 4.851562 C 30.046875 5.519531 29.054688 4.449219 29.550781 5.789062 C 30.046875 7.460938 28.222656 6.148438 28.03125 7.601562 C 27.871094 8.78125 29.160156 8.757812 29.933594 8.304688 C 30.695312 7.855469 30.621094 7.179688 32.054688 7.066406 C 33.324219 6.964844 35.449219 8.945312 34.679688 9.578125 C 34.113281 10.042969 33.570312 9.835938 33.082031 9.453125 C 32.910156 9.3125 32.8125 8.742188 32.304688 8.5 C 31.546875 8.136719 30.429688 8.917969 29.238281 9.421875 C 28.050781 9.925781 25.980469 11.433594 27.035156 14.179688 C 27.671875 15.839844 28.425781 16.410156 29.65625 16.203125 C 30.253906 16.105469 31.261719 15.523438 31.902344 15.992188 C 33.023438 16.808594 33.964844 18.792969 33.417969 20.34375 C 32.917969 21.765625 33.339844 22.785156 33.621094 23.242188 C 31.246094 25.863281 27.816406 27.5 24 27.5 C 22.785156 27.5 21.617188 27.335938 20.503906 27.023438 C 21.214844 26.40625 23.125 24.628906 23.445312 23.148438 C 23.6875 22.039062 24.746094 23.316406 25.660156 20.734375 C 27.125 16.585938 24.441406 18.820312 23.386719 17.476562 C 22.382812 15.351562 21.722656 16.414062 20.773438 15.496094 C 19.824219 14.578125 18.628906 14.664062 17.660156 15.054688 C 16.691406 15.449219 16.207031 14.863281 15.996094 14.15625 C 15.671875 13.066406 14.703125 12.792969 13.410156 12.789062 C 12.550781 12.785156 13.765625 11.277344 14.183594 10.890625 C 14.765625 10.34375 16.105469 10.21875 16.335938 10.707031 C 16.566406 11.191406 17.125 10.722656 16.988281 10.15625 C 16.851562 9.589844 17.230469 9.4375 17.617188 9.019531 C 18.003906 8.605469 18.515625 7.761719 18.578125 7.035156 C 18.640625 6.304688 19.496094 6.652344 20.203125 6.882812 C 20.914062 7.113281 21.539062 6.226562 21.085938 5.8125 C 20.707031 5.464844 20.886719 5.445312 21.632812 5.121094 C 22.378906 4.796875 22.082031 3.960938 21.484375 3.542969 C 21.066406 3.253906 20.800781 2.4375 20.675781 1.964844 C 21.738281 1.683594 22.851562 1.535156 24 1.535156 Z M 24 0 C 15.992188 0 9.484375 6.511719 9.484375 14.519531 C 9.484375 22.527344 15.992188 29.035156 24 29.035156 C 32.007812 29.035156 38.515625 22.527344 38.515625 14.519531 C 38.515625 6.511719 32.007812 0 24 0 Z M 24 0 " fill-opacity="1" fill-rule="nonzero"/></g></svg>