<svg xmlns="http://www.w3.org/2000/svg" xmlns:xlink="http://www.w3.org/1999/xlink" width="64" zoomAndPan="magnify" viewBox="0 0 48 30.000001" height="40" preserveAspectRatio="xMidYMid meet" version="1.0"><defs><clipPath id="01ee522646"><path d="M 18 0.375 L 31 0.375 L 31 13 L 18 13 Z M 18 0.375 " clip-rule="nonzero"/></clipPath><clipPath id="815e216b90"><path d="M 11.785156 24 L 16 24 L 16 28.679688 L 11.785156 28.679688 Z M 11.785156 24 " clip-rule="nonzero"/></clipPath><clipPath id="13da845dd0"><path d="M 32 24 L 36.460938 24 L 36.460938 28.679688 L 32 28.679688 Z M 32 24 " clip-rule="nonzero"/></clipPath></defs><g clip-path="url(#01ee522646)"><path fill="#000000" d="M 24.125 12.328125 C 27.449219 12.328125 30.148438 9.65625 30.148438 6.363281 C 30.148438 3.066406 27.449219 0.394531 24.125 0.394531 C 20.796875 0.394531 18.101562 3.066406 18.101562 6.363281 C 18.101562 9.65625 20.796875 12.328125 24.125 12.328125 Z M 24.125 12.328125 " fill-opacity="1" fill-rule="nonzero"/></g><path fill="#000000" d="M 26.191406 21.101562 C 25.71875 20.769531 25.566406 20.128906 25.839844 19.609375 C 26.042969 19.230469 26.441406 18.992188 26.882812 18.992188 C 26.992188 18.992188 27.101562 19.007812 27.207031 19.035156 C 27.402344 19.089844 27.542969 19.179688 27.628906 19.234375 C 28.085938 19.53125 29.277344 20.289062 29.277344 20.289062 L 29.324219 20.320312 C 29.371094 19.78125 29.777344 19.316406 30.308594 19.222656 C 30.367188 19.214844 30.425781 19.207031 30.488281 19.207031 C 31.03125 19.207031 31.5625 19.648438 31.671875 20.191406 C 31.71875 20.40625 31.816406 20.625 31.980469 20.875 C 32.148438 21.128906 32.410156 21.347656 32.691406 21.578125 L 32.757812 21.636719 C 33.035156 21.867188 33.390625 22.191406 33.671875 22.625 C 33.878906 22.949219 34.003906 23.269531 34.046875 23.613281 C 34.050781 23.640625 34.054688 23.664062 34.058594 23.691406 L 34.660156 24.035156 C 35.28125 24.390625 36.039062 23.847656 35.878906 23.15625 C 35.878906 23.152344 35.878906 23.148438 35.875 23.140625 C 34.605469 17.875 29.824219 13.964844 24.125 13.964844 C 18.417969 13.964844 13.640625 17.875 12.371094 23.140625 C 12.367188 23.148438 12.367188 23.152344 12.367188 23.160156 C 12.210938 23.847656 12.964844 24.390625 13.585938 24.039062 L 14.1875 23.691406 C 14.191406 23.667969 14.195312 23.640625 14.199219 23.617188 C 14.242188 23.273438 14.367188 22.949219 14.574219 22.628906 C 14.851562 22.191406 15.207031 21.871094 15.488281 21.636719 L 15.554688 21.582031 C 15.832031 21.351562 16.097656 21.128906 16.261719 20.878906 C 16.429688 20.628906 16.527344 20.410156 16.570312 20.191406 C 16.683594 19.648438 17.214844 19.210938 17.757812 19.210938 C 17.816406 19.210938 17.875 19.214844 17.933594 19.226562 C 18.464844 19.316406 18.871094 19.78125 18.917969 20.320312 C 18.917969 20.320312 20.171875 19.519531 20.617188 19.234375 C 20.699219 19.183594 20.84375 19.089844 21.035156 19.039062 C 21.144531 19.011719 21.253906 18.996094 21.363281 18.996094 C 21.800781 18.996094 22.203125 19.234375 22.402344 19.613281 C 22.679688 20.128906 22.527344 20.769531 22.050781 21.101562 C 21.972656 21.15625 21.710938 21.324219 21.339844 21.566406 C 21.457031 21.761719 21.511719 21.988281 21.5 22.222656 C 21.492188 22.324219 21.472656 22.417969 21.445312 22.511719 C 21.503906 22.574219 21.558594 22.640625 21.605469 22.714844 C 21.808594 23.046875 21.824219 23.445312 21.675781 23.785156 C 21.789062 23.921875 21.875 24.089844 21.917969 24.277344 C 21.957031 24.433594 21.960938 24.585938 21.941406 24.730469 L 26.296875 24.730469 C 26.277344 24.585938 26.28125 24.429688 26.316406 24.277344 C 26.363281 24.089844 26.445312 23.921875 26.5625 23.785156 C 26.414062 23.445312 26.429688 23.046875 26.632812 22.714844 C 26.679688 22.640625 26.734375 22.574219 26.792969 22.511719 C 26.761719 22.417969 26.746094 22.324219 26.738281 22.222656 C 26.726562 21.988281 26.78125 21.761719 26.902344 21.566406 C 26.527344 21.324219 26.269531 21.15625 26.191406 21.101562 Z M 26.191406 21.101562 " fill-opacity="1" fill-rule="nonzero"/><path fill="#000000" d="M 20.851562 24.160156 C 20.738281 24.140625 20.636719 24.167969 20.542969 24.226562 C 20.398438 24.320312 19.710938 24.761719 19.5625 24.851562 C 19.464844 24.914062 19.363281 24.898438 19.308594 24.8125 C 19.253906 24.726562 19.28125 24.636719 19.382812 24.566406 C 19.410156 24.550781 20.574219 23.828125 20.835938 23.625 C 21.003906 23.496094 21.035156 23.285156 20.9375 23.117188 C 20.835938 22.957031 20.636719 22.894531 20.445312 22.964844 C 20.363281 22.996094 20.292969 23.046875 20.222656 23.09375 C 20 23.234375 19.238281 23.726562 19.011719 23.863281 C 18.914062 23.921875 18.824219 23.898438 18.769531 23.8125 C 18.71875 23.730469 18.742188 23.640625 18.835938 23.574219 C 18.851562 23.566406 20.152344 22.738281 20.511719 22.5 C 20.761719 22.339844 20.785156 22.03125 20.578125 21.855469 C 20.445312 21.746094 20.242188 21.742188 20.0625 21.855469 C 19.855469 21.984375 18.558594 22.820312 18.386719 22.925781 C 18.296875 22.976562 18.207031 22.949219 18.15625 22.875 C 18.105469 22.796875 18.121094 22.714844 18.199219 22.648438 C 18.21875 22.632812 21.332031 20.648438 21.601562 20.460938 C 21.761719 20.347656 21.796875 20.136719 21.710938 19.972656 C 21.625 19.8125 21.4375 19.738281 21.246094 19.789062 C 21.171875 19.808594 21.109375 19.847656 21.046875 19.886719 C 20.4375 20.277344 20.007812 20.550781 19.398438 20.941406 C 19.398438 20.941406 17.683594 22.039062 17.484375 22.164062 C 17.378906 22.230469 17.335938 22.234375 17.28125 22.152344 C 17.246094 22.097656 17.351562 21.980469 17.4375 21.875 C 17.46875 21.835938 17.617188 21.660156 17.679688 21.554688 C 17.867188 21.25 18.011719 20.929688 18.113281 20.589844 C 18.128906 20.542969 18.132812 20.492188 18.136719 20.445312 C 18.148438 20.203125 17.972656 20.019531 17.800781 19.992188 C 17.613281 19.957031 17.382812 20.152344 17.34375 20.34375 C 17.273438 20.691406 17.117188 21.007812 16.921875 21.300781 C 16.675781 21.671875 16.332031 21.949219 15.996094 22.230469 C 15.707031 22.472656 15.441406 22.726562 15.238281 23.042969 C 15.105469 23.25 15.011719 23.472656 14.980469 23.714844 C 14.921875 24.148438 15.007812 24.558594 15.191406 24.949219 C 15.410156 25.414062 15.671875 25.851562 16.03125 26.222656 C 16.464844 26.675781 16.996094 26.898438 17.636719 26.820312 C 17.914062 26.785156 18.175781 26.691406 18.414062 26.542969 C 18.835938 26.285156 20.71875 25.078125 20.96875 24.910156 C 21.132812 24.800781 21.203125 24.644531 21.160156 24.453125 C 21.117188 24.289062 21.019531 24.1875 20.851562 24.160156 Z M 20.851562 24.160156 " fill-opacity="1" fill-rule="nonzero"/><g clip-path="url(#815e216b90)"><path fill="#000000" d="M 14.558594 25.242188 C 14.445312 25.003906 14.363281 24.761719 14.316406 24.519531 L 12.039062 25.816406 C 11.847656 25.925781 11.785156 26.171875 11.90625 26.359375 L 13.253906 28.425781 C 13.375 28.609375 13.625 28.65625 13.804688 28.53125 L 15.90625 27.03125 C 15.773438 26.933594 15.644531 26.824219 15.523438 26.699219 C 15.152344 26.3125 14.847656 25.847656 14.558594 25.242188 Z M 14.558594 25.242188 " fill-opacity="1" fill-rule="nonzero"/></g><path fill="#000000" d="M 33.265625 23.71875 C 33.234375 23.472656 33.140625 23.253906 33.007812 23.042969 C 32.804688 22.730469 32.539062 22.472656 32.25 22.234375 C 31.914062 21.953125 31.570312 21.675781 31.320312 21.304688 C 31.125 21.007812 30.972656 20.695312 30.898438 20.347656 C 30.859375 20.15625 30.628906 19.960938 30.445312 19.992188 C 30.273438 20.023438 30.09375 20.207031 30.109375 20.445312 C 30.109375 20.496094 30.117188 20.546875 30.132812 20.59375 C 30.234375 20.929688 30.378906 21.253906 30.5625 21.554688 C 30.628906 21.660156 30.777344 21.835938 30.808594 21.875 C 30.894531 21.980469 30.996094 22.097656 30.964844 22.152344 C 30.90625 22.234375 30.867188 22.230469 30.761719 22.167969 C 30.5625 22.039062 28.847656 20.945312 28.847656 20.945312 C 28.238281 20.554688 27.808594 20.28125 27.199219 19.890625 C 27.136719 19.847656 27.070312 19.808594 26.996094 19.789062 C 26.808594 19.738281 26.621094 19.8125 26.535156 19.972656 C 26.445312 20.140625 26.484375 20.351562 26.640625 20.460938 C 26.910156 20.648438 30.023438 22.636719 30.042969 22.652344 C 30.121094 22.71875 30.136719 22.800781 30.085938 22.878906 C 30.035156 22.953125 29.945312 22.980469 29.859375 22.925781 C 29.683594 22.820312 28.386719 21.984375 28.179688 21.855469 C 28 21.742188 27.796875 21.746094 27.664062 21.859375 C 27.457031 22.035156 27.484375 22.339844 27.730469 22.503906 C 28.089844 22.738281 29.390625 23.566406 29.40625 23.578125 C 29.5 23.640625 29.527344 23.730469 29.472656 23.816406 C 29.417969 23.902344 29.328125 23.925781 29.230469 23.863281 C 29.007812 23.726562 28.246094 23.234375 28.023438 23.09375 C 27.949219 23.050781 27.882812 22.996094 27.796875 22.96875 C 27.601562 22.894531 27.40625 22.957031 27.304688 23.121094 C 27.203125 23.285156 27.238281 23.5 27.40625 23.628906 C 27.667969 23.828125 28.832031 24.550781 28.859375 24.570312 C 28.960938 24.640625 28.988281 24.730469 28.933594 24.8125 C 28.878906 24.898438 28.777344 24.914062 28.675781 24.855469 C 28.53125 24.761719 27.84375 24.320312 27.699219 24.230469 C 27.601562 24.167969 27.503906 24.140625 27.390625 24.160156 C 27.222656 24.191406 27.125 24.289062 27.085938 24.457031 C 27.039062 24.648438 27.109375 24.804688 27.273438 24.914062 C 27.523438 25.078125 29.410156 26.285156 29.832031 26.546875 C 30.070312 26.695312 30.328125 26.785156 30.609375 26.824219 C 31.246094 26.902344 31.777344 26.679688 32.214844 26.226562 C 32.570312 25.855469 32.835938 25.414062 33.054688 24.953125 C 33.242188 24.558594 33.328125 24.148438 33.265625 23.71875 Z M 33.265625 23.71875 " fill-opacity="1" fill-rule="nonzero"/><g clip-path="url(#13da845dd0)"><path fill="#000000" d="M 36.207031 25.816406 L 33.929688 24.519531 C 33.878906 24.761719 33.800781 25.003906 33.683594 25.242188 C 33.398438 25.847656 33.089844 26.3125 32.71875 26.699219 C 32.597656 26.824219 32.46875 26.9375 32.335938 27.035156 L 34.4375 28.53125 C 34.617188 28.660156 34.871094 28.613281 34.988281 28.429688 L 36.335938 26.359375 C 36.457031 26.171875 36.398438 25.925781 36.207031 25.816406 Z M 36.207031 25.816406 " fill-opacity="1" fill-rule="nonzero"/></g></svg>