<svg xmlns="http://www.w3.org/2000/svg" xmlns:xlink="http://www.w3.org/1999/xlink" width="64" zoomAndPan="magnify" viewBox="0 0 48 30.000001" height="40" preserveAspectRatio="xMidYMid meet" version="1.0"><defs><clipPath id="5ad90a08c0"><path d="M 18 12 L 36.484375 12 L 36.484375 25 L 18 25 Z M 18 12 " clip-rule="nonzero"/></clipPath><clipPath id="35b6aa8a75"><path d="M 11.804688 14 L 29 14 L 29 29.03125 L 11.804688 29.03125 Z M 11.804688 14 " clip-rule="nonzero"/></clipPath></defs><path fill="#000000" d="M 25.464844 12.234375 C 24.628906 12.234375 23.820312 12.070312 23.054688 11.753906 C 22.320312 11.445312 21.65625 11.003906 21.089844 10.441406 C 20.519531 9.882812 20.074219 9.226562 19.761719 8.5 C 19.441406 7.746094 19.277344 6.945312 19.277344 6.117188 C 19.277344 5.292969 19.441406 4.492188 19.761719 3.738281 C 20.074219 3.011719 20.519531 2.355469 21.089844 1.796875 C 21.65625 1.234375 22.320312 0.792969 23.054688 0.484375 C 23.820312 0.164062 24.628906 0.00390625 25.464844 0.00390625 C 26.300781 0.00390625 27.109375 0.167969 27.875 0.484375 C 28.609375 0.792969 29.273438 1.234375 29.839844 1.796875 C 30.410156 2.355469 30.855469 3.011719 31.167969 3.738281 C 31.488281 4.492188 31.652344 5.292969 31.652344 6.117188 C 31.652344 6.945312 31.488281 7.746094 31.167969 8.5 C 30.855469 9.226562 30.410156 9.882812 29.839844 10.441406 C 29.273438 11.003906 28.609375 11.445312 27.875 11.753906 C 27.109375 12.070312 26.300781 12.234375 25.464844 12.234375 Z M 25.464844 1.476562 C 22.875 1.476562 20.765625 3.558594 20.765625 6.117188 C 20.765625 8.679688 22.875 10.761719 25.464844 10.761719 C 28.054688 10.761719 30.164062 8.679688 30.164062 6.117188 C 30.164062 3.558594 28.054688 1.476562 25.464844 1.476562 Z M 25.464844 1.476562 " fill-opacity="1" fill-rule="nonzero"/><g clip-path="url(#5ad90a08c0)"><path fill="#000000" d="M 33.558594 24.421875 L 28.480469 24.421875 L 28.480469 22.949219 L 33.558594 22.949219 C 33.964844 22.949219 34.339844 22.765625 34.589844 22.449219 C 34.839844 22.132812 34.925781 21.730469 34.828125 21.34375 C 33.746094 17.105469 29.894531 14.144531 25.464844 14.144531 C 23.144531 14.144531 20.902344 14.96875 19.152344 16.46875 L 18.175781 15.355469 C 19.167969 14.507812 20.289062 13.84375 21.507812 13.386719 C 22.773438 12.914062 24.101562 12.671875 25.464844 12.671875 C 26.738281 12.671875 27.988281 12.882812 29.179688 13.300781 C 30.332031 13.703125 31.402344 14.289062 32.367188 15.039062 C 33.320312 15.78125 34.136719 16.667969 34.800781 17.671875 C 35.476562 18.691406 35.972656 19.804688 36.273438 20.984375 C 36.484375 21.816406 36.300781 22.679688 35.765625 23.355469 C 35.234375 24.03125 34.429688 24.421875 33.558594 24.421875 Z M 33.558594 24.421875 " fill-opacity="1" fill-rule="nonzero"/></g><g clip-path="url(#35b6aa8a75)"><path fill="#000000" d="M 25.378906 29.027344 C 25.035156 29.027344 24.695312 28.984375 24.363281 28.894531 C 23.847656 28.761719 23.375 28.527344 22.949219 28.203125 L 13.375 20.867188 C 12.953125 20.542969 12.605469 20.144531 12.347656 19.6875 C 12.09375 19.246094 11.933594 18.765625 11.871094 18.257812 C 11.804688 17.753906 11.839844 17.25 11.972656 16.757812 C 12.109375 16.25 12.34375 15.78125 12.671875 15.363281 L 12.726562 15.292969 C 13.050781 14.878906 13.523438 14.613281 14.046875 14.550781 C 14.574219 14.484375 15.09375 14.625 15.515625 14.945312 L 19.011719 17.625 C 19.433594 17.949219 19.699219 18.410156 19.765625 18.929688 C 19.828125 19.421875 19.707031 19.902344 19.421875 20.304688 L 22 22.277344 C 22.320312 21.90625 22.765625 21.667969 23.257812 21.609375 C 23.785156 21.542969 24.304688 21.683594 24.722656 22.003906 L 28.222656 24.683594 C 28.640625 25.007812 28.910156 25.46875 28.976562 25.988281 C 29.042969 26.511719 28.898438 27.023438 28.574219 27.4375 L 28.519531 27.507812 C 28.191406 27.925781 27.789062 28.269531 27.324219 28.527344 C 26.878906 28.773438 26.390625 28.933594 25.882812 28.996094 C 25.714844 29.015625 25.546875 29.027344 25.378906 29.027344 Z M 14.296875 16.003906 C 14.277344 16.003906 14.253906 16.007812 14.234375 16.007812 C 14.101562 16.027344 13.984375 16.09375 13.90625 16.195312 L 13.847656 16.265625 C 13.011719 17.332031 13.207031 18.875 14.289062 19.703125 L 23.863281 27.042969 C 24.945312 27.867188 26.503906 27.675781 27.34375 26.605469 L 27.398438 26.535156 C 27.480469 26.433594 27.515625 26.304688 27.496094 26.175781 C 27.480469 26.042969 27.414062 25.929688 27.308594 25.847656 L 23.8125 23.167969 C 23.707031 23.085938 23.578125 23.050781 23.445312 23.066406 C 23.3125 23.085938 23.195312 23.148438 23.113281 23.253906 C 22.886719 23.542969 22.558594 23.730469 22.1875 23.777344 C 21.820312 23.820312 21.453125 23.722656 21.160156 23.496094 L 18.433594 21.410156 C 17.828125 20.945312 17.714844 20.078125 18.1875 19.476562 C 18.269531 19.375 18.304688 19.246094 18.289062 19.117188 C 18.269531 18.984375 18.203125 18.871094 18.101562 18.789062 L 14.601562 16.109375 C 14.511719 16.039062 14.40625 16.003906 14.296875 16.003906 Z M 19.347656 20.246094 Z M 19.347656 20.246094 " fill-opacity="1" fill-rule="nonzero"/></g></svg>