<svg xmlns="http://www.w3.org/2000/svg" xmlns:xlink="http://www.w3.org/1999/xlink" width="64" zoomAndPan="magnify" viewBox="0 0 48 30.000001" height="40" preserveAspectRatio="xMidYMid meet" version="1.0"><defs><filter x="0%" y="0%" width="100%" height="100%" id="3b3a371c60"><feColorMatrix values="0 0 0 0 1 0 0 0 0 1 0 0 0 0 1 0 0 0 1 0" color-interpolation-filters="sRGB"/></filter><clipPath id="89a5919932"><path d="M 15 10 L 33.144531 10 L 33.144531 21 L 15 21 Z M 15 10 " clip-rule="nonzero"/></clipPath><mask id="0cdf721e5a"><g filter="url(#3b3a371c60)"><rect x="-4.8" width="57.6" fill="#000000" y="-3" height="36.000001" fill-opacity="0.6"/></g></mask><clipPath id="50f59d087a"><path d="M 0.0859375 0.742188 L 18.0625 0.742188 L 18.0625 10.066406 L 0.0859375 10.066406 Z M 0.0859375 0.742188 " clip-rule="nonzero"/></clipPath><clipPath id="3376ca004e"><rect x="0" width="19" y="0" height="11"/></clipPath><mask id="7e00b968fa"><g filter="url(#3b3a371c60)"><rect x="-4.8" width="57.6" fill="#000000" y="-3" height="36.000001" fill-opacity="0.45"/></g></mask><clipPath id="e0b0fa4333"><path d="M 0.0859375 0 L 9.074219 0 L 9.074219 20.066406 L 0.0859375 20.066406 Z M 0.0859375 0 " clip-rule="nonzero"/></clipPath><clipPath id="da51d43913"><rect x="0" width="10" y="0" height="21"/></clipPath><clipPath id="353046ae6a"><path d="M 24 0 L 33.144531 0 L 33.144531 21 L 24 21 Z M 24 0 " clip-rule="nonzero"/></clipPath><mask id="aa6873e9a0"><g filter="url(#3b3a371c60)"><rect x="-4.8" width="57.6" fill="#000000" y="-3" height="36.000001" fill-opacity="0.8"/></g></mask><clipPath id="9dfb929a04"><path d="M 0.0742188 0 L 9.066406 0 L 9.066406 20.066406 L 0.0742188 20.066406 Z M 0.0742188 0 " clip-rule="nonzero"/></clipPath><clipPath id="bce77f1e0d"><rect x="0" width="10" y="0" height="21"/></clipPath><clipPath id="56c95520ec"><path d="M 15 16 L 25 16 L 25 29.03125 L 15 29.03125 Z M 15 16 " clip-rule="nonzero"/></clipPath><mask id="ec7f7c49c9"><g filter="url(#3b3a371c60)"><rect x="-4.8" width="57.6" fill="#000000" y="-3" height="36.000001" fill-opacity="0.45"/></g></mask><clipPath id="fa659992e1"><path d="M 0.0859375 0.488281 L 9.074219 0.488281 L 9.074219 13.03125 L 0.0859375 13.03125 Z M 0.0859375 0.488281 " clip-rule="nonzero"/></clipPath><clipPath id="267b51daf2"><rect x="0" width="10" y="0" height="14"/></clipPath><clipPath id="9cf1b23130"><path d="M 24 16 L 33.144531 16 L 33.144531 29.03125 L 24 29.03125 Z M 24 16 " clip-rule="nonzero"/></clipPath><mask id="04830c8977"><g filter="url(#3b3a371c60)"><rect x="-4.8" width="57.6" fill="#000000" y="-3" height="36.000001" fill-opacity="0.8"/></g></mask><clipPath id="158708afd2"><path d="M 0.0742188 0.488281 L 9.070312 0.488281 L 9.070312 13.03125 L 0.0742188 13.03125 Z M 0.0742188 0.488281 " clip-rule="nonzero"/></clipPath><clipPath id="6859453c2e"><rect x="0" width="10" y="0" height="14"/></clipPath></defs><g clip-path="url(#89a5919932)"><g mask="url(#0cdf721e5a)"><g transform="matrix(1, 0, 0, 1, 15, 10)"><g clip-path="url(#3376ca004e)"><g clip-path="url(#50f59d087a)"><path fill="#010101" d="M 9.074219 0.742188 L 0.0859375 4.796875 L 9.074219 10.066406 L 18.0625 4.796875 Z M 9.074219 0.742188 " fill-opacity="1" fill-rule="nonzero"/></g></g></g></g></g><g mask="url(#7e00b968fa)"><g transform="matrix(1, 0, 0, 1, 15, 0.000000000000005692)"><g clip-path="url(#da51d43913)"><g clip-path="url(#e0b0fa4333)"><path fill="#010101" d="M 0.0859375 14.796875 L 9.074219 20.066406 L 9.074219 0 Z M 0.0859375 14.796875 " fill-opacity="1" fill-rule="nonzero"/></g></g></g></g><g clip-path="url(#353046ae6a)"><g mask="url(#aa6873e9a0)"><g transform="matrix(1, 0, 0, 1, 24, 0.000000000000005692)"><g clip-path="url(#bce77f1e0d)"><g clip-path="url(#9dfb929a04)"><path fill="#010101" d="M 0.0742188 0 L 0.0742188 20.066406 L 9.0625 14.796875 Z M 0.0742188 0 " fill-opacity="1" fill-rule="nonzero"/></g></g></g></g></g><g clip-path="url(#56c95520ec)"><g mask="url(#ec7f7c49c9)"><g transform="matrix(1, 0, 0, 1, 15, 16)"><g clip-path="url(#267b51daf2)"><g clip-path="url(#fa659992e1)"><path fill="#010101" d="M 0.0859375 0.488281 L 9.074219 13.050781 L 9.074219 5.753906 Z M 0.0859375 0.488281 " fill-opacity="1" fill-rule="nonzero"/></g></g></g></g></g><g clip-path="url(#9cf1b23130)"><g mask="url(#04830c8977)"><g transform="matrix(1, 0, 0, 1, 24, 16)"><g clip-path="url(#6859453c2e)"><g clip-path="url(#158708afd2)"><path fill="#010101" d="M 0.0742188 5.753906 L 0.0742188 13.050781 L 9.070312 0.488281 Z M 0.0742188 5.753906 " fill-opacity="1" fill-rule="nonzero"/></g></g></g></g></g></svg>