<svg xmlns="http://www.w3.org/2000/svg" xmlns:xlink="http://www.w3.org/1999/xlink" width="64" zoomAndPan="magnify" viewBox="0 0 48 30.000001" height="40" preserveAspectRatio="xMidYMid meet" version="1.0"><defs><clipPath id="ab124e7260"><path d="M 7.363281 0 L 40.75 0 L 40.75 29.03125 L 7.363281 29.03125 Z M 7.363281 0 " clip-rule="nonzero"/></clipPath></defs><g clip-path="url(#ab124e7260)"><path fill="#000000" d="M 37.027344 4.972656 L 33.609375 4.972656 C 33.242188 4.359375 32.582031 3.941406 31.820312 3.914062 L 31.820312 3.863281 C 31.820312 1.730469 30.082031 0 27.945312 0 L 20.167969 0 C 18.03125 0 16.292969 1.730469 16.292969 3.863281 L 16.292969 3.914062 C 15.53125 3.941406 14.871094 4.359375 14.503906 4.972656 L 11.085938 4.972656 C 9.039062 4.972656 7.378906 6.628906 7.378906 8.667969 L 7.378906 12.140625 C 7.378906 13.394531 7.65625 14.566406 8.203125 15.625 L 8.203125 24.945312 C 8.203125 27.199219 10.042969 29.035156 12.300781 29.035156 L 35.808594 29.035156 C 38.070312 29.035156 39.910156 27.199219 39.910156 24.945312 L 39.910156 15.625 C 40.457031 14.566406 40.734375 13.394531 40.734375 12.140625 L 40.734375 8.667969 C 40.734375 6.628906 39.070312 4.972656 37.027344 4.972656 Z M 18.515625 4.703125 L 18.515625 3.863281 C 18.515625 2.953125 19.257812 2.214844 20.167969 2.214844 L 27.945312 2.214844 C 28.855469 2.214844 29.597656 2.953125 29.597656 3.863281 L 29.597656 4.703125 C 29.597656 4.796875 29.605469 4.886719 29.625 4.972656 L 18.488281 4.972656 C 18.503906 4.886719 18.515625 4.796875 18.515625 4.703125 Z M 9.601562 8.667969 C 9.601562 7.851562 10.265625 7.1875 11.085938 7.1875 L 37.027344 7.1875 C 37.84375 7.1875 38.511719 7.851562 38.511719 8.667969 L 38.511719 12.140625 C 38.511719 13.113281 38.28125 14.007812 37.832031 14.796875 L 37.777344 14.890625 C 36.699219 16.492188 34.742188 17.476562 32.304688 17.476562 L 27.492188 17.476562 L 27.492188 17.226562 C 27.492188 16.367188 26.792969 15.664062 25.929688 15.664062 L 22.183594 15.664062 C 21.320312 15.664062 20.617188 16.367188 20.617188 17.226562 L 20.617188 17.476562 L 15.804688 17.476562 C 13.367188 17.476562 11.414062 16.492188 10.335938 14.890625 L 10.28125 14.796875 C 9.828125 14.007812 9.601562 13.113281 9.601562 12.140625 Z M 25.640625 17.511719 L 25.640625 21.28125 L 22.472656 21.28125 L 22.472656 17.511719 Z M 35.808594 26.816406 L 12.300781 26.816406 C 11.265625 26.816406 10.425781 25.976562 10.425781 24.945312 L 10.425781 17.632812 C 11.839844 18.699219 13.691406 19.320312 15.804688 19.320312 L 20.617188 19.320312 L 20.617188 21.570312 C 20.617188 22.429688 21.320312 23.128906 22.183594 23.128906 L 25.929688 23.128906 C 26.792969 23.128906 27.492188 22.429688 27.492188 21.570312 L 27.492188 19.320312 L 32.304688 19.320312 C 34.417969 19.320312 36.273438 18.699219 37.6875 17.632812 L 37.6875 24.945312 C 37.6875 25.976562 36.84375 26.816406 35.808594 26.816406 Z M 35.808594 26.816406 " fill-opacity="1" fill-rule="nonzero"/></g></svg>